<svg xmlns="http://www.w3.org/2000/svg" xmlns:xlink="http://www.w3.org/1999/xlink" width="300" zoomAndPan="magnify" viewBox="0 0 224.87999 74.999997" height="100" preserveAspectRatio="xMidYMid meet" version="1.0"><defs><g/><clipPath id="2d9915cf98"><path d="M 126 48 L 224.761719 48 L 224.761719 52 L 126 52 Z M 126 48 " clip-rule="nonzero"/></clipPath><clipPath id="bccf3320d8"><path d="M 0 22.734375 L 30.519531 22.734375 L 30.519531 53 L 0 53 Z M 0 22.734375 " clip-rule="nonzero"/></clipPath></defs><g fill="#0dff00" fill-opacity="1"><g transform="translate(36.832149, 51.422634)"><g><path d="M 2.796875 -1.703125 C 2.972656 -1.640625 3.113281 -1.539062 3.21875 -1.40625 C 3.332031 -1.269531 3.390625 -1.097656 3.390625 -0.890625 C 3.390625 -0.609375 3.273438 -0.390625 3.046875 -0.234375 C 2.828125 -0.078125 2.503906 0 2.078125 0 L 0.390625 0 L 0.390625 -3.265625 L 1.984375 -3.265625 C 2.378906 -3.265625 2.679688 -3.1875 2.890625 -3.03125 C 3.109375 -2.882812 3.21875 -2.679688 3.21875 -2.421875 C 3.21875 -2.265625 3.179688 -2.125 3.109375 -2 C 3.035156 -1.875 2.929688 -1.773438 2.796875 -1.703125 Z M 1.140625 -2.703125 L 1.140625 -1.921875 L 1.890625 -1.921875 C 2.078125 -1.921875 2.21875 -1.953125 2.3125 -2.015625 C 2.414062 -2.085938 2.46875 -2.1875 2.46875 -2.3125 C 2.46875 -2.445312 2.414062 -2.546875 2.3125 -2.609375 C 2.21875 -2.671875 2.078125 -2.703125 1.890625 -2.703125 Z M 2.015625 -0.5625 C 2.222656 -0.5625 2.375 -0.59375 2.46875 -0.65625 C 2.570312 -0.726562 2.625 -0.832031 2.625 -0.96875 C 2.625 -1.238281 2.421875 -1.375 2.015625 -1.375 L 1.140625 -1.375 L 1.140625 -0.5625 Z M 2.015625 -0.5625 "/></g></g></g><g fill="#0dff00" fill-opacity="1"><g transform="translate(41.17409, 51.422634)"><g><path d="M 1.96875 0.0625 C 1.632812 0.0625 1.328125 -0.0078125 1.046875 -0.15625 C 0.773438 -0.3125 0.5625 -0.515625 0.40625 -0.765625 C 0.257812 -1.023438 0.1875 -1.316406 0.1875 -1.640625 C 0.1875 -1.953125 0.257812 -2.238281 0.40625 -2.5 C 0.5625 -2.757812 0.773438 -2.960938 1.046875 -3.109375 C 1.328125 -3.253906 1.632812 -3.328125 1.96875 -3.328125 C 2.3125 -3.328125 2.617188 -3.253906 2.890625 -3.109375 C 3.160156 -2.960938 3.375 -2.757812 3.53125 -2.5 C 3.6875 -2.238281 3.765625 -1.953125 3.765625 -1.640625 C 3.765625 -1.316406 3.6875 -1.023438 3.53125 -0.765625 C 3.375 -0.515625 3.160156 -0.3125 2.890625 -0.15625 C 2.617188 -0.0078125 2.3125 0.0625 1.96875 0.0625 Z M 1.96875 -0.59375 C 2.164062 -0.59375 2.34375 -0.632812 2.5 -0.71875 C 2.65625 -0.8125 2.773438 -0.9375 2.859375 -1.09375 C 2.953125 -1.25 3 -1.429688 3 -1.640625 C 3 -1.835938 2.953125 -2.015625 2.859375 -2.171875 C 2.773438 -2.335938 2.65625 -2.460938 2.5 -2.546875 C 2.34375 -2.640625 2.164062 -2.6875 1.96875 -2.6875 C 1.78125 -2.6875 1.609375 -2.640625 1.453125 -2.546875 C 1.296875 -2.460938 1.171875 -2.335938 1.078125 -2.171875 C 0.992188 -2.015625 0.953125 -1.835938 0.953125 -1.640625 C 0.953125 -1.429688 0.992188 -1.25 1.078125 -1.09375 C 1.171875 -0.9375 1.296875 -0.8125 1.453125 -0.71875 C 1.609375 -0.632812 1.78125 -0.59375 1.96875 -0.59375 Z M 1.96875 -0.59375 "/></g></g></g><g fill="#0dff00" fill-opacity="1"><g transform="translate(45.885654, 51.422634)"><g><path d="M 1.96875 0.0625 C 1.632812 0.0625 1.328125 -0.0078125 1.046875 -0.15625 C 0.773438 -0.3125 0.5625 -0.515625 0.40625 -0.765625 C 0.257812 -1.023438 0.1875 -1.316406 0.1875 -1.640625 C 0.1875 -1.953125 0.257812 -2.238281 0.40625 -2.5 C 0.5625 -2.757812 0.773438 -2.960938 1.046875 -3.109375 C 1.328125 -3.253906 1.632812 -3.328125 1.96875 -3.328125 C 2.3125 -3.328125 2.617188 -3.253906 2.890625 -3.109375 C 3.160156 -2.960938 3.375 -2.757812 3.53125 -2.5 C 3.6875 -2.238281 3.765625 -1.953125 3.765625 -1.640625 C 3.765625 -1.316406 3.6875 -1.023438 3.53125 -0.765625 C 3.375 -0.515625 3.160156 -0.3125 2.890625 -0.15625 C 2.617188 -0.0078125 2.3125 0.0625 1.96875 0.0625 Z M 1.96875 -0.59375 C 2.164062 -0.59375 2.34375 -0.632812 2.5 -0.71875 C 2.65625 -0.8125 2.773438 -0.9375 2.859375 -1.09375 C 2.953125 -1.25 3 -1.429688 3 -1.640625 C 3 -1.835938 2.953125 -2.015625 2.859375 -2.171875 C 2.773438 -2.335938 2.65625 -2.460938 2.5 -2.546875 C 2.34375 -2.640625 2.164062 -2.6875 1.96875 -2.6875 C 1.78125 -2.6875 1.609375 -2.640625 1.453125 -2.546875 C 1.296875 -2.460938 1.171875 -2.335938 1.078125 -2.171875 C 0.992188 -2.015625 0.953125 -1.835938 0.953125 -1.640625 C 0.953125 -1.429688 0.992188 -1.25 1.078125 -1.09375 C 1.171875 -0.9375 1.296875 -0.8125 1.453125 -0.71875 C 1.609375 -0.632812 1.78125 -0.59375 1.96875 -0.59375 Z M 1.96875 -0.59375 "/></g></g></g><g fill="#0dff00" fill-opacity="1"><g transform="translate(50.597218, 51.422634)"><g><path d="M 1.578125 -1.28125 L 1.140625 -0.828125 L 1.140625 0 L 0.390625 0 L 0.390625 -3.265625 L 1.140625 -3.265625 L 1.140625 -1.75 L 2.59375 -3.265625 L 3.421875 -3.265625 L 2.078125 -1.8125 L 3.515625 0 L 2.625 0 Z M 1.578125 -1.28125 "/></g></g></g><g fill="#0dff00" fill-opacity="1"><g transform="translate(54.822189, 51.422634)"><g><path d="M 3.359375 0 L 3.359375 -1.96875 L 2.390625 -0.34375 L 2.0625 -0.34375 L 1.09375 -1.921875 L 1.09375 0 L 0.390625 0 L 0.390625 -3.265625 L 1.015625 -3.265625 L 2.234375 -1.234375 L 3.4375 -3.265625 L 4.0625 -3.265625 L 4.078125 0 Z M 3.359375 0 "/></g></g></g><g fill="#0dff00" fill-opacity="1"><g transform="translate(60.053105, 51.422634)"><g><path d="M 2.546875 -0.703125 L 1.015625 -0.703125 L 0.734375 0 L -0.046875 0 L 1.421875 -3.265625 L 2.15625 -3.265625 L 3.625 0 L 2.828125 0 Z M 2.296875 -1.28125 L 1.78125 -2.53125 L 1.265625 -1.28125 Z M 2.296875 -1.28125 "/></g></g></g><g fill="#0dff00" fill-opacity="1"><g transform="translate(64.399721, 51.422634)"><g><path d="M 2.46875 0 L 1.84375 -0.90625 L 1.140625 -0.90625 L 1.140625 0 L 0.390625 0 L 0.390625 -3.265625 L 1.796875 -3.265625 C 2.085938 -3.265625 2.335938 -3.21875 2.546875 -3.125 C 2.765625 -3.03125 2.929688 -2.894531 3.046875 -2.71875 C 3.160156 -2.539062 3.21875 -2.328125 3.21875 -2.078125 C 3.21875 -1.835938 3.160156 -1.628906 3.046875 -1.453125 C 2.929688 -1.273438 2.765625 -1.140625 2.546875 -1.046875 L 3.28125 0 Z M 2.453125 -2.078125 C 2.453125 -2.265625 2.394531 -2.40625 2.28125 -2.5 C 2.164062 -2.601562 1.992188 -2.65625 1.765625 -2.65625 L 1.140625 -2.65625 L 1.140625 -1.515625 L 1.765625 -1.515625 C 1.992188 -1.515625 2.164062 -1.5625 2.28125 -1.65625 C 2.394531 -1.757812 2.453125 -1.898438 2.453125 -2.078125 Z M 2.453125 -2.078125 "/></g></g></g><g fill="#0dff00" fill-opacity="1"><g transform="translate(68.601299, 51.422634)"><g><path d="M 1.578125 -1.28125 L 1.140625 -0.828125 L 1.140625 0 L 0.390625 0 L 0.390625 -3.265625 L 1.140625 -3.265625 L 1.140625 -1.75 L 2.59375 -3.265625 L 3.421875 -3.265625 L 2.078125 -1.8125 L 3.515625 0 L 2.625 0 Z M 1.578125 -1.28125 "/></g></g></g><g fill="#0dff00" fill-opacity="1"><g transform="translate(72.826269, 51.422634)"><g/></g></g><g fill="#0dff00" fill-opacity="1"><g transform="translate(74.913019, 51.422634)"><g><path d="M 1.953125 -1.15625 L 1.953125 0 L 1.203125 0 L 1.203125 -1.171875 L -0.0625 -3.265625 L 0.734375 -3.265625 L 1.609375 -1.8125 L 2.484375 -3.265625 L 3.234375 -3.265625 Z M 1.953125 -1.15625 "/></g></g></g><g fill="#0dff00" fill-opacity="1"><g transform="translate(78.838545, 51.422634)"><g><path d="M 1.96875 0.0625 C 1.632812 0.0625 1.328125 -0.0078125 1.046875 -0.15625 C 0.773438 -0.3125 0.5625 -0.515625 0.40625 -0.765625 C 0.257812 -1.023438 0.1875 -1.316406 0.1875 -1.640625 C 0.1875 -1.953125 0.257812 -2.238281 0.40625 -2.5 C 0.5625 -2.757812 0.773438 -2.960938 1.046875 -3.109375 C 1.328125 -3.253906 1.632812 -3.328125 1.96875 -3.328125 C 2.3125 -3.328125 2.617188 -3.253906 2.890625 -3.109375 C 3.160156 -2.960938 3.375 -2.757812 3.53125 -2.5 C 3.6875 -2.238281 3.765625 -1.953125 3.765625 -1.640625 C 3.765625 -1.316406 3.6875 -1.023438 3.53125 -0.765625 C 3.375 -0.515625 3.160156 -0.3125 2.890625 -0.15625 C 2.617188 -0.0078125 2.3125 0.0625 1.96875 0.0625 Z M 1.96875 -0.59375 C 2.164062 -0.59375 2.34375 -0.632812 2.5 -0.71875 C 2.65625 -0.8125 2.773438 -0.9375 2.859375 -1.09375 C 2.953125 -1.25 3 -1.429688 3 -1.640625 C 3 -1.835938 2.953125 -2.015625 2.859375 -2.171875 C 2.773438 -2.335938 2.65625 -2.460938 2.5 -2.546875 C 2.34375 -2.640625 2.164062 -2.6875 1.96875 -2.6875 C 1.78125 -2.6875 1.609375 -2.640625 1.453125 -2.546875 C 1.296875 -2.460938 1.171875 -2.335938 1.078125 -2.171875 C 0.992188 -2.015625 0.953125 -1.835938 0.953125 -1.640625 C 0.953125 -1.429688 0.992188 -1.25 1.078125 -1.09375 C 1.171875 -0.9375 1.296875 -0.8125 1.453125 -0.71875 C 1.609375 -0.632812 1.78125 -0.59375 1.96875 -0.59375 Z M 1.96875 -0.59375 "/></g></g></g><g fill="#0dff00" fill-opacity="1"><g transform="translate(83.55011, 51.422634)"><g><path d="M 1.84375 0.0625 C 1.375 0.0625 1.007812 -0.0664062 0.75 -0.328125 C 0.488281 -0.585938 0.359375 -0.957031 0.359375 -1.4375 L 0.359375 -3.265625 L 1.109375 -3.265625 L 1.109375 -1.46875 C 1.109375 -0.882812 1.351562 -0.59375 1.84375 -0.59375 C 2.082031 -0.59375 2.265625 -0.660156 2.390625 -0.796875 C 2.515625 -0.941406 2.578125 -1.164062 2.578125 -1.46875 L 2.578125 -3.265625 L 3.328125 -3.265625 L 3.328125 -1.4375 C 3.328125 -0.957031 3.195312 -0.585938 2.9375 -0.328125 C 2.675781 -0.0664062 2.3125 0.0625 1.84375 0.0625 Z M 1.84375 0.0625 "/></g></g></g><g fill="#0dff00" fill-opacity="1"><g transform="translate(87.99966, 51.422634)"><g><path d="M 2.46875 0 L 1.84375 -0.90625 L 1.140625 -0.90625 L 1.140625 0 L 0.390625 0 L 0.390625 -3.265625 L 1.796875 -3.265625 C 2.085938 -3.265625 2.335938 -3.21875 2.546875 -3.125 C 2.765625 -3.03125 2.929688 -2.894531 3.046875 -2.71875 C 3.160156 -2.539062 3.21875 -2.328125 3.21875 -2.078125 C 3.21875 -1.835938 3.160156 -1.628906 3.046875 -1.453125 C 2.929688 -1.273438 2.765625 -1.140625 2.546875 -1.046875 L 3.28125 0 Z M 2.453125 -2.078125 C 2.453125 -2.265625 2.394531 -2.40625 2.28125 -2.5 C 2.164062 -2.601562 1.992188 -2.65625 1.765625 -2.65625 L 1.140625 -2.65625 L 1.140625 -1.515625 L 1.765625 -1.515625 C 1.992188 -1.515625 2.164062 -1.5625 2.28125 -1.65625 C 2.394531 -1.757812 2.453125 -1.898438 2.453125 -2.078125 Z M 2.453125 -2.078125 "/></g></g></g><g fill="#0dff00" fill-opacity="1"><g transform="translate(92.201235, 51.422634)"><g/></g></g><g fill="#0dff00" fill-opacity="1"><g transform="translate(94.287982, 51.422634)"><g><path d="M 1.140625 -2.65625 L 1.140625 -1.796875 L 2.65625 -1.796875 L 2.65625 -1.1875 L 1.140625 -1.1875 L 1.140625 0 L 0.390625 0 L 0.390625 -3.265625 L 2.859375 -3.265625 L 2.859375 -2.65625 Z M 1.140625 -2.65625 "/></g></g></g><g fill="#0dff00" fill-opacity="1"><g transform="translate(98.04039, 51.422634)"><g><path d="M 0.390625 -3.265625 L 1.140625 -3.265625 L 1.140625 0 L 0.390625 0 Z M 0.390625 -3.265625 "/></g></g></g><g fill="#0dff00" fill-opacity="1"><g transform="translate(100.337685, 51.422634)"><g><path d="M 3.390625 -3.265625 L 3.390625 0 L 2.765625 0 L 1.140625 -1.984375 L 1.140625 0 L 0.390625 0 L 0.390625 -3.265625 L 1.015625 -3.265625 L 2.640625 -1.28125 L 2.640625 -3.265625 Z M 3.390625 -3.265625 "/></g></g></g><g fill="#0dff00" fill-opacity="1"><g transform="translate(104.880814, 51.422634)"><g><path d="M 0.390625 -3.265625 L 1.875 -3.265625 C 2.226562 -3.265625 2.539062 -3.195312 2.8125 -3.0625 C 3.082031 -2.925781 3.289062 -2.734375 3.4375 -2.484375 C 3.59375 -2.242188 3.671875 -1.960938 3.671875 -1.640625 C 3.671875 -1.304688 3.59375 -1.015625 3.4375 -0.765625 C 3.289062 -0.523438 3.082031 -0.335938 2.8125 -0.203125 C 2.539062 -0.0664062 2.226562 0 1.875 0 L 0.390625 0 Z M 1.84375 -0.625 C 2.164062 -0.625 2.421875 -0.710938 2.609375 -0.890625 C 2.804688 -1.078125 2.90625 -1.328125 2.90625 -1.640625 C 2.90625 -1.953125 2.804688 -2.195312 2.609375 -2.375 C 2.421875 -2.5625 2.164062 -2.65625 1.84375 -2.65625 L 1.140625 -2.65625 L 1.140625 -0.625 Z M 1.84375 -0.625 "/></g></g></g><g fill="#0dff00" fill-opacity="1"><g transform="translate(109.508156, 51.422634)"><g><path d="M 0.390625 -3.265625 L 1.140625 -3.265625 L 1.140625 0 L 0.390625 0 Z M 0.390625 -3.265625 "/></g></g></g><g fill="#0dff00" fill-opacity="1"><g transform="translate(111.805452, 51.422634)"><g><path d="M 3.390625 -3.265625 L 3.390625 0 L 2.765625 0 L 1.140625 -1.984375 L 1.140625 0 L 0.390625 0 L 0.390625 -3.265625 L 1.015625 -3.265625 L 2.640625 -1.28125 L 2.640625 -3.265625 Z M 3.390625 -3.265625 "/></g></g></g><g fill="#0dff00" fill-opacity="1"><g transform="translate(116.34858, 51.422634)"><g><path d="M 2.59375 -1.6875 L 3.28125 -1.6875 L 3.28125 -0.359375 C 3.101562 -0.222656 2.898438 -0.117188 2.671875 -0.046875 C 2.441406 0.0234375 2.207031 0.0625 1.96875 0.0625 C 1.625 0.0625 1.316406 -0.0078125 1.046875 -0.15625 C 0.773438 -0.300781 0.5625 -0.503906 0.40625 -0.765625 C 0.257812 -1.023438 0.1875 -1.316406 0.1875 -1.640625 C 0.1875 -1.960938 0.257812 -2.25 0.40625 -2.5 C 0.5625 -2.757812 0.773438 -2.960938 1.046875 -3.109375 C 1.328125 -3.253906 1.640625 -3.328125 1.984375 -3.328125 C 2.265625 -3.328125 2.519531 -3.273438 2.75 -3.171875 C 2.988281 -3.078125 3.1875 -2.941406 3.34375 -2.765625 L 2.859375 -2.3125 C 2.628906 -2.5625 2.347656 -2.6875 2.015625 -2.6875 C 1.804688 -2.6875 1.617188 -2.640625 1.453125 -2.546875 C 1.296875 -2.460938 1.171875 -2.335938 1.078125 -2.171875 C 0.992188 -2.015625 0.953125 -1.835938 0.953125 -1.640625 C 0.953125 -1.429688 0.992188 -1.25 1.078125 -1.09375 C 1.171875 -0.9375 1.296875 -0.8125 1.453125 -0.71875 C 1.617188 -0.632812 1.804688 -0.59375 2.015625 -0.59375 C 2.222656 -0.59375 2.414062 -0.640625 2.59375 -0.734375 Z M 2.59375 -1.6875 "/></g></g></g><g fill="#0dff00" fill-opacity="1"><g transform="translate(120.718588, 51.422634)"><g><path d="M 1.46875 0.0625 C 1.207031 0.0625 0.953125 0.0234375 0.703125 -0.046875 C 0.460938 -0.117188 0.269531 -0.210938 0.125 -0.328125 L 0.390625 -0.890625 C 0.523438 -0.785156 0.6875 -0.703125 0.875 -0.640625 C 1.070312 -0.578125 1.269531 -0.546875 1.46875 -0.546875 C 1.6875 -0.546875 1.84375 -0.578125 1.9375 -0.640625 C 2.039062 -0.710938 2.09375 -0.800781 2.09375 -0.90625 C 2.09375 -0.976562 2.0625 -1.039062 2 -1.09375 C 1.945312 -1.144531 1.867188 -1.1875 1.765625 -1.21875 C 1.671875 -1.25 1.546875 -1.285156 1.390625 -1.328125 C 1.140625 -1.378906 0.929688 -1.4375 0.765625 -1.5 C 0.609375 -1.5625 0.472656 -1.65625 0.359375 -1.78125 C 0.253906 -1.914062 0.203125 -2.09375 0.203125 -2.3125 C 0.203125 -2.5 0.25 -2.671875 0.34375 -2.828125 C 0.445312 -2.984375 0.601562 -3.101562 0.8125 -3.1875 C 1.019531 -3.28125 1.273438 -3.328125 1.578125 -3.328125 C 1.785156 -3.328125 1.988281 -3.300781 2.1875 -3.25 C 2.382812 -3.195312 2.554688 -3.125 2.703125 -3.03125 L 2.46875 -2.46875 C 2.164062 -2.632812 1.863281 -2.71875 1.5625 -2.71875 C 1.351562 -2.71875 1.195312 -2.679688 1.09375 -2.609375 C 1 -2.546875 0.953125 -2.457031 0.953125 -2.34375 C 0.953125 -2.226562 1.007812 -2.144531 1.125 -2.09375 C 1.238281 -2.039062 1.414062 -1.988281 1.65625 -1.9375 C 1.90625 -1.875 2.109375 -1.8125 2.265625 -1.75 C 2.429688 -1.695312 2.566406 -1.601562 2.671875 -1.46875 C 2.785156 -1.34375 2.84375 -1.171875 2.84375 -0.953125 C 2.84375 -0.765625 2.789062 -0.59375 2.6875 -0.4375 C 2.582031 -0.289062 2.425781 -0.171875 2.21875 -0.078125 C 2.007812 0.015625 1.757812 0.0625 1.46875 0.0625 Z M 1.46875 0.0625 "/></g></g></g><g fill="#0dff00" fill-opacity="1"><g transform="translate(124.93532, 43.099744)"><g><path d="M 11.359375 0.328125 C 9.398438 0.328125 7.632812 -0.09375 6.0625 -0.9375 C 4.5 -1.78125 3.269531 -2.941406 2.375 -4.421875 C 1.488281 -5.898438 1.046875 -7.566406 1.046875 -9.421875 C 1.046875 -11.265625 1.488281 -12.925781 2.375 -14.40625 C 3.269531 -15.882812 4.5 -17.046875 6.0625 -17.890625 C 7.632812 -18.734375 9.398438 -19.15625 11.359375 -19.15625 C 13.304688 -19.15625 15.0625 -18.734375 16.625 -17.890625 C 18.1875 -17.046875 19.414062 -15.882812 20.3125 -14.40625 C 21.207031 -12.925781 21.65625 -11.265625 21.65625 -9.421875 C 21.65625 -7.566406 21.207031 -5.898438 20.3125 -4.421875 C 19.414062 -2.941406 18.1875 -1.78125 16.625 -0.9375 C 15.0625 -0.09375 13.304688 0.328125 11.359375 0.328125 Z M 11.359375 -3.390625 C 12.460938 -3.390625 13.460938 -3.644531 14.359375 -4.15625 C 15.265625 -4.664062 15.972656 -5.378906 16.484375 -6.296875 C 16.992188 -7.210938 17.25 -8.253906 17.25 -9.421875 C 17.25 -10.585938 16.992188 -11.625 16.484375 -12.53125 C 15.972656 -13.445312 15.265625 -14.160156 14.359375 -14.671875 C 13.460938 -15.179688 12.460938 -15.4375 11.359375 -15.4375 C 10.242188 -15.4375 9.238281 -15.179688 8.34375 -14.671875 C 7.445312 -14.160156 6.742188 -13.445312 6.234375 -12.53125 C 5.722656 -11.625 5.46875 -10.585938 5.46875 -9.421875 C 5.46875 -8.253906 5.722656 -7.210938 6.234375 -6.296875 C 6.742188 -5.378906 7.445312 -4.664062 8.34375 -4.15625 C 9.238281 -3.644531 10.242188 -3.390625 11.359375 -3.390625 Z M 11.359375 -3.390625 "/></g></g></g><g fill="#0dff00" fill-opacity="1"><g transform="translate(150.205152, 43.099744)"><g><path d="M 19.5 -18.828125 L 19.5 0 L 15.921875 0 L 6.53125 -11.4375 L 6.53125 0 L 2.234375 0 L 2.234375 -18.828125 L 5.84375 -18.828125 L 15.203125 -7.40625 L 15.203125 -18.828125 Z M 19.5 -18.828125 "/></g></g></g><g fill="#0dff00" fill-opacity="1"><g transform="translate(174.506219, 43.099744)"><g><path d="M 2.234375 -18.828125 L 6.59375 -18.828125 L 6.59375 0 L 2.234375 0 Z M 2.234375 -18.828125 "/></g></g></g><g fill="#0dff00" fill-opacity="1"><g transform="translate(185.890363, 43.099744)"><g><path d="M 17.484375 -3.546875 L 17.484375 0 L 1.015625 0 L 1.015625 -2.828125 L 11.359375 -15.28125 L 1.234375 -15.28125 L 1.234375 -18.828125 L 17.078125 -18.828125 L 17.078125 -16.015625 L 6.78125 -3.546875 Z M 17.484375 -3.546875 "/></g></g></g><g fill="#0dff00" fill-opacity="1"><g transform="translate(206.504728, 43.099744)"><g><path d="M 16.8125 -3.5 L 16.8125 0 L 2.234375 0 L 2.234375 -18.828125 L 16.46875 -18.828125 L 16.46875 -15.34375 L 6.5625 -15.34375 L 6.5625 -11.25 L 15.3125 -11.25 L 15.3125 -7.859375 L 6.5625 -7.859375 L 6.5625 -3.5 Z M 16.8125 -3.5 "/></g></g></g><g clip-path="url(#2d9915cf98)"><path stroke-linecap="butt" transform="matrix(1.090034, 0, 0, 1.090034, 128.627981, 48.617892)" fill="none" stroke-linejoin="miter" d="M 0.000848719 1.500884 L 86.759905 1.500884 " stroke="#e3ffe2" stroke-width="3" stroke-opacity="1" stroke-miterlimit="4"/></g><g fill="#e3ffe2" fill-opacity="1"><g transform="translate(36.043603, 43.099744)"><g><path d="M 18.8125 -18.828125 L 18.8125 0 L 17.171875 0 L 5.0625 -15.28125 L 5.0625 0 L 3.0625 0 L 3.0625 -18.828125 L 4.703125 -18.828125 L 16.84375 -3.546875 L 16.84375 -18.828125 Z M 18.8125 -18.828125 "/></g></g></g><g fill="#e3ffe2" fill-opacity="1"><g transform="translate(60.479211, 43.099744)"><g><path d="M 11.296875 0.15625 C 9.429688 0.15625 7.738281 -0.257812 6.21875 -1.09375 C 4.707031 -1.925781 3.523438 -3.066406 2.671875 -4.515625 C 1.828125 -5.972656 1.40625 -7.609375 1.40625 -9.421875 C 1.40625 -11.234375 1.828125 -12.863281 2.671875 -14.3125 C 3.523438 -15.769531 4.707031 -16.914062 6.21875 -17.75 C 7.738281 -18.582031 9.429688 -19 11.296875 -19 C 13.160156 -19 14.84375 -18.582031 16.34375 -17.75 C 17.84375 -16.925781 19.019531 -15.785156 19.875 -14.328125 C 20.738281 -12.867188 21.171875 -11.234375 21.171875 -9.421875 C 21.171875 -7.609375 20.738281 -5.96875 19.875 -4.5 C 19.019531 -3.039062 17.84375 -1.898438 16.34375 -1.078125 C 14.84375 -0.253906 13.160156 0.15625 11.296875 0.15625 Z M 11.296875 -1.609375 C 12.785156 -1.609375 14.128906 -1.941406 15.328125 -2.609375 C 16.535156 -3.285156 17.476562 -4.21875 18.15625 -5.40625 C 18.84375 -6.601562 19.1875 -7.941406 19.1875 -9.421875 C 19.1875 -10.890625 18.84375 -12.21875 18.15625 -13.40625 C 17.476562 -14.601562 16.535156 -15.535156 15.328125 -16.203125 C 14.128906 -16.878906 12.785156 -17.21875 11.296875 -17.21875 C 9.804688 -17.21875 8.457031 -16.878906 7.25 -16.203125 C 6.039062 -15.535156 5.085938 -14.601562 4.390625 -13.40625 C 3.703125 -12.21875 3.359375 -10.890625 3.359375 -9.421875 C 3.359375 -7.941406 3.703125 -6.601562 4.390625 -5.40625 C 5.085938 -4.21875 6.039062 -3.285156 7.25 -2.609375 C 8.457031 -1.941406 9.804688 -1.609375 11.296875 -1.609375 Z M 11.296875 -1.609375 "/></g></g></g><g fill="#e3ffe2" fill-opacity="1"><g transform="translate(85.614486, 43.099744)"><g><path d="M 6.734375 -17.109375 L 0.109375 -17.109375 L 0.109375 -18.828125 L 15.34375 -18.828125 L 15.34375 -17.109375 L 8.71875 -17.109375 L 8.71875 0 L 6.734375 0 Z M 6.734375 -17.109375 "/></g></g></g><g fill="#e3ffe2" fill-opacity="1"><g transform="translate(103.618553, 43.099744)"><g><path d="M 16.390625 -1.71875 L 16.390625 0 L 3.0625 0 L 3.0625 -18.828125 L 15.984375 -18.828125 L 15.984375 -17.109375 L 5.0625 -17.109375 L 5.0625 -10.40625 L 14.796875 -10.40625 L 14.796875 -8.71875 L 5.0625 -8.71875 L 5.0625 -1.71875 Z M 16.390625 -1.71875 "/></g></g></g><g clip-path="url(#bccf3320d8)"><path fill="#0dff00" d="M 0 51.390625 L 0 25.75 C 0 25.550781 0.0390625 25.359375 0.113281 25.171875 C 0.191406 24.988281 0.300781 24.824219 0.441406 24.683594 C 0.582031 24.542969 0.746094 24.433594 0.929688 24.355469 C 1.117188 24.28125 1.308594 24.242188 1.507812 24.242188 L 15.082031 24.242188 C 15.28125 24.242188 15.472656 24.28125 15.660156 24.355469 C 15.84375 24.433594 16.007812 24.542969 16.148438 24.683594 C 16.289062 24.824219 16.398438 24.988281 16.476562 25.171875 C 16.550781 25.359375 16.589844 25.550781 16.589844 25.75 C 16.589844 25.949219 16.550781 26.144531 16.476562 26.328125 C 16.398438 26.511719 16.289062 26.675781 16.148438 26.816406 C 16.007812 26.957031 15.84375 27.066406 15.660156 27.144531 C 15.472656 27.21875 15.28125 27.257812 15.082031 27.257812 L 3.015625 27.257812 L 3.015625 49.882812 L 25.640625 49.882812 L 25.640625 37.816406 C 25.640625 37.617188 25.675781 37.421875 25.753906 37.238281 C 25.832031 37.054688 25.9375 36.890625 26.082031 36.75 C 26.222656 36.609375 26.386719 36.5 26.570312 36.421875 C 26.753906 36.347656 26.945312 36.308594 27.148438 36.308594 C 27.347656 36.308594 27.539062 36.347656 27.722656 36.421875 C 27.910156 36.5 28.070312 36.609375 28.214844 36.75 C 28.355469 36.890625 28.464844 37.054688 28.539062 37.238281 C 28.617188 37.421875 28.65625 37.617188 28.65625 37.816406 L 28.65625 51.390625 C 28.65625 51.589844 28.617188 51.78125 28.539062 51.964844 C 28.464844 52.152344 28.355469 52.316406 28.214844 52.457031 C 28.070312 52.597656 27.910156 52.707031 27.722656 52.78125 C 27.539062 52.859375 27.347656 52.898438 27.148438 52.898438 L 1.507812 52.898438 C 1.308594 52.898438 1.117188 52.859375 0.929688 52.78125 C 0.746094 52.707031 0.582031 52.597656 0.441406 52.457031 C 0.300781 52.316406 0.191406 52.152344 0.113281 51.964844 C 0.0390625 51.78125 0 51.589844 0 51.390625 Z M 27.832031 23.175781 C 27.691406 23.035156 27.527344 22.925781 27.34375 22.847656 C 27.160156 22.773438 26.964844 22.734375 26.765625 22.734375 C 26.566406 22.734375 26.375 22.773438 26.1875 22.847656 C 26.003906 22.925781 25.839844 23.035156 25.699219 23.175781 L 15.707031 33.167969 L 15.707031 37.191406 L 19.726562 37.191406 L 29.722656 27.199219 C 29.863281 27.058594 29.972656 26.894531 30.046875 26.710938 C 30.125 26.523438 30.164062 26.332031 30.164062 26.132812 C 30.164062 25.929688 30.125 25.738281 30.046875 25.554688 C 29.972656 25.371094 29.863281 25.207031 29.722656 25.066406 Z M 27.832031 23.175781 " fill-opacity="1" fill-rule="nonzero"/></g></svg>